<svg xmlns="http://www.w3.org/2000/svg" width="34" height="34" viewBox="0 0 34 34" fill="none">
  <g clip-path="url(#clip0_51_606)">
    <path d="M17.2045 33.6767C8.0091 33.6767 0.528015 26.1956 0.528015 17.0001C0.528015 7.80507 8.0091 0.323608 17.2045 0.323608C26.4 0.323608 33.8811 7.80507 33.8811 17.0001C33.8811 26.1956 26.4 33.6767 17.2045 33.6767ZM17.2045 1.65773C8.74398 1.65773 1.86214 8.54069 1.86214 17.0001C1.86214 25.4603 8.74398 32.3425 17.2045 32.3425C25.6647 32.3425 32.5469 25.4603 32.5469 17.0001C32.5469 8.54069 25.6647 1.65773 17.2045 1.65773Z" fill="#F45050"/>
    <path d="M25.0458 16.9934C27.6874 14.4964 28.9911 12.0549 28.1566 10.6204C27.6952 9.82955 26.6453 9.45118 25.2126 9.45118C24.066 9.45118 22.6663 9.70614 21.1343 10.1709C20.9975 9.59311 20.8437 9.05168 20.6755 8.54212C21.0012 8.23787 21.2073 7.80798 21.2073 7.32807C21.2073 6.40678 20.4605 5.66042 19.5396 5.66042C19.4574 5.66042 19.3788 5.67265 19.3002 5.6845C18.6695 4.82251 17.9594 4.32629 17.2053 4.32629C15.5521 4.32629 14.1031 6.6636 13.2733 10.1805C11.7439 9.71874 10.3446 9.46526 9.1987 9.46526C7.75822 9.46526 6.70464 9.84363 6.24325 10.6397C5.40943 12.0757 6.71872 14.5138 9.36399 17.0068C9.03453 17.318 8.71731 17.6293 8.43195 17.9377C7.92314 17.6127 7.25793 17.5675 6.69908 17.8914C5.90157 18.3505 5.6277 19.3707 6.08872 20.169C6.19434 20.3513 6.3322 20.5036 6.48673 20.6282C5.95271 21.714 5.84042 22.6712 6.25326 23.379C6.71464 24.171 7.76452 24.5482 9.19722 24.5482C10.3438 24.5482 11.7435 24.2933 13.2756 23.8286C14.1057 27.341 15.5532 29.6742 17.2053 29.6742C18.8585 29.6742 20.3075 27.3369 21.1372 23.8186C21.8773 24.042 22.5859 24.2192 23.2489 24.3378C23.3422 24.7884 23.6124 25.2001 24.0427 25.4492C24.8398 25.9083 25.86 25.6352 26.3203 24.8381C26.4 24.7006 26.4504 24.5553 26.4871 24.4074C27.272 24.2381 27.8571 23.896 28.167 23.3605C28.9993 21.9256 27.6911 19.486 25.0458 16.9934ZM25.2122 10.4521C26.284 10.4521 27.0422 10.6978 27.2909 11.1244C27.6689 11.7744 27.0993 13.1789 25.8382 14.7054C25.3953 15.2424 24.8746 15.7842 24.3021 16.3215C23.5409 15.6637 22.6956 15.0071 21.7721 14.3696C21.6835 13.2338 21.5367 12.1568 21.3448 11.1555C22.7919 10.7086 24.126 10.4521 25.2122 10.4521ZM19.0505 20.1705C18.4397 20.5266 17.8231 20.8498 17.2075 21.1574C16.592 20.8505 15.9746 20.5288 15.3631 20.1746C14.739 19.8121 14.1594 19.4441 13.6043 19.0735C13.5628 18.4072 13.535 17.7213 13.535 17.0008C13.535 16.2811 13.5624 15.5944 13.6043 14.9292C14.1683 14.5527 14.7509 14.1832 15.3579 13.8308C15.9686 13.4747 16.5853 13.15 17.2001 12.8424C17.8164 13.1493 18.4334 13.4724 19.0453 13.8267C19.6693 14.1892 20.2489 14.5572 20.8041 14.9263C20.8456 15.5926 20.8734 16.28 20.8734 17.0005C20.8734 17.7201 20.846 18.4057 20.8041 19.0706C20.24 19.4486 19.6578 19.8169 19.0505 20.1705ZM20.7003 20.3372C20.6199 21.111 20.5139 21.8392 20.3861 22.5189C19.7216 22.2825 19.0401 22.009 18.3493 21.6995C18.7499 21.4864 19.1516 21.2696 19.5548 21.0358C19.9469 20.8075 20.3275 20.5733 20.7003 20.3372ZM16.0679 21.7014C15.3749 22.0127 14.6916 22.2888 14.0241 22.5282C13.8959 21.8455 13.7896 21.1159 13.7088 20.3398C14.0827 20.5763 14.467 20.8109 14.8606 21.0388C15.2649 21.2726 15.6673 21.489 16.0679 21.7014ZM12.5618 18.3487C11.9437 17.898 11.3759 17.4485 10.8582 17.0034C11.3889 16.5476 11.9574 16.0966 12.5618 15.6556C12.5444 16.0977 12.5355 16.5454 12.5355 17.0008C12.5351 17.4559 12.5444 17.9047 12.5618 18.3487ZM13.708 13.664C13.7892 12.8902 13.8952 12.162 14.023 11.4813C14.6875 11.7192 15.369 11.9927 16.0598 12.3021C15.6592 12.5137 15.2575 12.7309 14.8543 12.9658C14.4622 13.1938 14.0816 13.4269 13.708 13.664ZM18.3404 12.2999C19.0341 11.9871 19.7175 11.711 20.3849 11.4735C20.5132 12.1546 20.6195 12.8858 20.7003 13.6614C20.3264 13.4235 19.9421 13.1904 19.5485 12.961C19.1442 12.7276 18.7418 12.5111 18.3404 12.2999ZM21.8465 15.6515C22.4654 16.1021 23.0332 16.5532 23.5509 16.9979C23.0202 17.4526 22.451 17.9032 21.8473 18.3442C21.8647 17.9021 21.8736 17.4544 21.8736 17.0005C21.874 16.5443 21.8636 16.0955 21.8465 15.6515ZM17.2045 5.32726C17.5725 5.32726 17.9813 5.60483 18.3886 6.12514C18.071 6.42865 17.8712 6.85483 17.8712 7.32844C17.8712 8.24935 18.618 8.99609 19.5389 8.99609C19.6145 8.99609 19.6856 8.98312 19.7586 8.97386C19.9091 9.43783 20.0485 9.94109 20.1763 10.4825C19.2187 10.8187 18.2207 11.2363 17.1997 11.7281C16.1817 11.2396 15.1848 10.8253 14.2306 10.4918C14.9936 7.22986 16.2388 5.32726 17.2045 5.32726ZM7.10747 11.1425C7.3565 10.7119 8.11881 10.4662 9.19796 10.4662C10.2842 10.4662 11.6168 10.7216 13.0625 11.1659C12.8709 12.1657 12.7249 13.2401 12.637 14.3748C11.7135 15.0134 10.869 15.6719 10.1096 16.3312C7.65223 14.025 6.62051 11.9801 7.10747 11.1425ZM9.19685 23.548C8.12511 23.548 7.36688 23.3038 7.11747 22.8758C6.88808 22.4822 7.0126 21.8081 7.42358 20.9991C7.74192 21.0195 8.06915 20.9509 8.36636 20.7805C9.09309 20.361 9.37733 19.4782 9.07493 18.7211C9.39215 18.3735 9.73791 18.0262 10.1066 17.679C10.8678 18.3383 11.7132 18.9935 12.6367 19.6309C12.7252 20.7668 12.8712 21.8444 13.064 22.845C11.6172 23.2916 10.283 23.548 9.19685 23.548ZM17.2045 28.6744C16.2403 28.6744 14.9962 26.7736 14.2324 23.5176C15.19 23.1815 16.188 22.7639 17.209 22.2721C18.227 22.7613 19.2239 23.1763 20.1782 23.5099C19.4155 26.7703 18.1699 28.6744 17.2045 28.6744ZM27.3016 22.8584C27.1608 23.1007 26.8528 23.2831 26.4207 23.3979C26.2881 23.0577 26.0501 22.7576 25.7096 22.5615C24.9124 22.0998 23.8922 22.3733 23.4316 23.1715C23.4004 23.226 23.3808 23.2834 23.3567 23.3398C22.7237 23.2238 22.05 23.0518 21.347 22.8361C21.5386 21.8363 21.6846 20.7605 21.7724 19.6257C22.6959 18.9872 23.5398 18.3301 24.2999 17.6709C26.7569 19.9763 27.7878 22.0201 27.3016 22.8584Z" fill="#F45050"/>
  </g>
  <defs>
    <clipPath id="clip0_51_606">
      <rect width="33.353" height="33.353" fill="white" transform="translate(0.528015 0.323608)"/>
    </clipPath>
  </defs>
</svg>